<?xml version="1.0" standalone="no"?>
<!DOCTYPE svg PUBLIC "-//W3C//DTD SVG 20010904//EN"
 "http://www.w3.org/TR/2001/REC-SVG-20010904/DTD/svg10.dtd">
<svg version="1.0" xmlns="http://www.w3.org/2000/svg"
 width="128.000000pt" height="128.000000pt" viewBox="0 0 128.000000 128.000000"
 preserveAspectRatio="xMidYMid meet">

<g transform="translate(0.000000,128.000000) scale(0.100000,-0.100000)"
fill="#000000" stroke="none">
<path d="M240 1052 l0 -152 152 0 152 0 -57 58 c-65 65 -64 69 13 95 161 53
324 14 446 -107 70 -70 108 -143 124 -239 12 -65 9 -99 -16 -207 -6 -26 -2
-28 78 -68 4 -2 14 20 22 49 99 333 -130 667 -476 695 -88 7 -192 -13 -273
-52 l-56 -28 -54 54 -55 54 0 -152z"/>
<path d="M129 813 c-5 -14 -15 -59 -21 -100 -29 -187 61 -398 216 -507 166
-116 361 -136 539 -54 l68 31 54 -53 55 -54 0 152 0 152 -152 0 -152 0 57 -58
c65 -65 64 -69 -13 -95 -161 -53 -324 -14 -446 107 -120 121 -157 271 -109
441 4 16 -3 25 -34 43 -50 28 -49 28 -62 -5z"/>
</g>
</svg>
